<svg xmlns="http://www.w3.org/2000/svg" version="1.1" xmlns:xlink="http://www.w3.org/1999/xlink" xmlns:svgjs="http://svgjs.dev/svgjs" width="2000" height="575" viewBox="0 0 2000 575"><g transform="matrix(1,0,0,1,-1.2121212121213603,-1.5758294648807123)"><svg viewBox="0 0 396 114" data-background-color="#e9e2da" preserveAspectRatio="xMidYMid meet" height="575" width="2000" xmlns="http://www.w3.org/2000/svg" xmlns:xlink="http://www.w3.org/1999/xlink"><g id="tight-bounds" transform="matrix(1,0,0,1,0.24000000000003752,0.3124253199937357)"><svg viewBox="0 0 395.5199999999999 113.37514936001256" height="113.37514936001256" width="395.5199999999999"><g><svg viewBox="0 0 685.8164075956105 196.58813118097592" height="113.37514936001256" width="395.5199999999999"><g transform="matrix(1,0,0,1,290.2964075956105,1.153637093710401)"><svg viewBox="0 0 395.52 194.28085699355512" height="194.28085699355512" width="395.52"><g id="textblocktransform"><svg viewBox="0 0 395.52 194.28085699355512" height="194.28085699355512" width="395.52" id="textblock"><g><svg viewBox="0 0 395.52 194.28085699355512" height="194.28085699355512" width="395.52"><g transform="matrix(1,0,0,1,0,0)"><svg width="395.52" viewBox="-0.34 -48.34 140.14000000000001 68.85000000000001" height="194.28085699355512" data-palette-color="#1b2141"><g class="wordmark-text-0" data-fill-palette-color="primary" id="text-0"><path d="M21.04-48.34L21.04-48.34Q26.88-48.34 28.76-42.04L28.76-42.04Q28.96-41.72 28.96-41.27 28.96-40.82 28.53-40.43 28.1-40.04 27.66-40.04L27.66-40.04Q26.9-40.04 26.76-40.97L26.76-40.97Q26.42-43.16 24.9-44.7 23.39-46.24 21.04-46.24 18.7-46.24 17.5-44.6 16.31-42.97 16.31-40.75 16.31-38.53 16.91-36.18 17.5-33.84 18.41-31.49 19.31-29.15 20.35-26.81 21.39-24.46 22.29-22.09L22.29-22.09Q24.39-16.6 24.39-12.22 24.39-7.84 21.97-4.2L21.97-4.2Q18.87 0.56 12.21 0.56L12.21 0.56Q7.1 0.56 3.38-1.98-0.34-4.52-0.34-9.25-0.34-13.99 2.49-17.43L2.49-17.43Q3.52-18.68 5-20L5-20Q5.49-20.41 5.93-20.41L5.93-20.41Q6.91-20.41 6.91-19.6L6.91-19.6Q6.91-19.19 6.69-18.85L6.69-18.85Q4.2-16.55 3.39-15.04L3.39-15.04Q2.05-12.4 2.05-9.96 2.05-7.52 2.91-6.05 3.76-4.59 5.18-3.61L5.18-3.61Q7.96-1.66 12.41-1.66 16.87-1.66 19.63-5.18L19.63-5.18Q22-8.18 22-12.51 22-16.85 17.94-26.27L17.94-26.27Q13.89-35.69 13.89-39.37 13.89-43.04 15.65-45.69 17.41-48.34 21.04-48.34ZM31.66 0L31.66 0Q28.81 0 28.81-3.59 28.81-7.18 31.48-12.39 34.15-17.6 37.77-21.4 41.38-25.2 43.66-25.2 45.94-25.2 46.26-23.19L46.26-23.19Q46.36-22.58 46.41-21.9L46.41-21.9Q46.63-22.05 46.95-22.05L46.95-22.05Q48.09-22.05 48.09-20.95L48.09-20.95 48.09-20.75Q48.09-20.68 47.48-18.55 46.87-16.43 46.09-11.47 45.31-6.52 45.31-3L45.31-3Q45.53-2.86 45.82-2.67 46.12-2.49 46.56-2.11 46.99-1.73 46.99-1.22 46.99-0.71 46.68-0.31 46.36 0.1 45.77 0.1L45.77 0.1Q44.58 0.1 43.61-1.12 42.65-2.34 42.65-3.76L42.65-3.76Q42.65-6.81 44.31-14.26L44.31-14.26Q42.23-9.91 38.94-5.88 35.64-1.86 34.38-0.93 33.13 0 31.66 0ZM31.3-3.49L31.3-3.49Q31.3-2.59 32.05-2.59L32.05-2.59Q32.59-2.59 32.96-2.95L32.96-2.95Q38.01-7.3 42.01-14.99L42.01-14.99Q44.28-19.38 44.42-20.04 44.55-20.7 44.55-21.17 44.55-21.63 44.31-22.05 44.06-22.46 43.63-22.46 43.19-22.46 42.33-22L42.33-22Q40.45-20.97 37.71-17.63 34.96-14.28 33.13-10.35 31.3-6.42 31.3-3.49ZM67.5-19.78L67.5-19.78Q67.5-22.19 66.18-22.19L66.18-22.19Q64.42-22.19 59.47-12.11L59.47-12.11Q57.22-7.54 56.33-5.21 55.44-2.88 55-1.93 54.56-0.98 54.13-0.49 53.71 0 53.18 0 52.66 0 52.56-0.26 52.46-0.51 52.46-1.18 52.46-1.86 54.43-12.71 56.39-23.56 56.7-24.12 57-24.68 57.25-24.84 57.49-25 58.12-25 58.76-25 59.11-24.51 59.47-24.02 59.47-23.65 59.47-23.27 59.37-22.9L59.37-22.9Q59.2-22.24 58.86-21.26L58.86-21.26Q57.69-17.92 56.61-11.79L56.61-11.79 56.1-8.84Q56.66-10.01 57.37-11.66 58.08-13.31 59.47-16.38 60.86-19.46 62.57-21.88L62.57-21.88Q64.77-25.05 66.67-25.05L66.67-25.05Q70.01-25.05 70.01-19.65L70.01-19.65Q70.01-17.63 69.44-14.6 68.87-11.57 68.17-7.98 67.48-4.39 67.4-2.05L67.4-2.05 67.11-0.71Q67.11-0.17 66.95 0.06 66.79 0.29 66 0.29 65.2 0.29 64.85 0 64.5-0.29 64.62-1.05L64.62-1.05 67.06-15.65Q67.5-18.36 67.5-19.78ZM90.2-24.8L90.2-24.8Q91.01-24.8 91.01-23.99 91.01-23.17 90.72-22.39 90.42-21.61 90.09-20.37 89.76-19.14 89.15-16.6 88.54-14.06 87.96-11.46 87.37-8.86 86.82-6.27 86.27-3.69 85.73-1.29L85.73-1.29Q86.66-1.93 87.58-2.76 88.49-3.59 89.12-4.09 89.74-4.59 90.18-4.59L90.18-4.59Q91.11-4.59 91.11-3.76L91.11-3.76Q91.11-3.1 90.69-2.76L90.69-2.76Q87.59-0.39 85.44 1.15L85.44 1.15 84 8.5Q82.54 15.94 80.27 18.51L80.27 18.51Q78.46 20.51 76.08 20.51 73.7 20.51 72.08 18.88 70.45 17.26 70.45 14.55L70.45 14.55Q70.45 10.64 74.48 7.13L74.48 7.13Q76.12 5.71 78.89 3.69 81.66 1.66 83.24 0.34L83.24 0.34Q83.46-0.76 83.77-2.06 84.07-3.37 84.32-4.44 84.56-5.52 84.81-6.57 85.05-7.62 85.26-8.57 85.47-9.52 85.64-10.21L85.64-10.21Q84.29-5.88 82.85-3.66L82.85-3.66Q80.19 0.39 78.35 0.39 76.51 0.39 75.37-1 74.24-2.39 74.24-4.71L74.24-4.71Q74.24-8.98 75.85-13.76 77.46-18.53 80.29-21.98 83.12-25.44 86.49-25.44L86.49-25.44Q88.2-25.44 89.54-24.66L89.54-24.66Q89.84-24.8 90.2-24.8ZM78.06-13.38Q76.51-9.11 76.51-5.55 76.51-2 78.36-2L78.36-2Q80-2 82.13-5.15 84.27-8.3 85.55-12.68 86.83-17.07 87.49-19.49 88.15-21.92 88.4-22.8L88.4-22.8Q87.61-23.46 86.47-23.46L86.47-23.46Q84.25-23.46 81.93-20.56 79.61-17.65 78.06-13.38ZM82.1 7.01L82.85 3.05Q81.02 4.57 79.23 5.92 77.43 7.28 76.02 8.62L76.02 8.62Q72.89 11.62 72.89 14.29 72.89 16.97 74.06 17.68L74.06 17.68Q74.58 17.99 75.63 17.99L75.63 17.99Q77.78 17.99 79.25 15.66 80.73 13.33 82.1 7.01L82.1 7.01ZM104.38-4.1L104.38-4.1Q105.24-4.1 105.24-3.2L105.24-3.2Q105.24-2.15 102.68-0.83 100.11 0.49 98.4 0.49 96.69 0.49 95.84-0.07 94.99-0.63 94.45-1.64L94.45-1.64Q93.4-3.59 93.4-6.35L93.4-6.35Q93.4-11.23 94.86-15.55 96.33-19.87 98.77-22.72 101.21-25.56 104.04-25.56L104.04-25.56Q105.56-25.56 106.42-24.3 107.29-23.05 107.29-21.34L107.29-21.34Q107.29-18.14 105.62-15.92 103.95-13.7 101.5-12.28 99.06-10.86 95.89-9.59L95.89-9.59 95.79-6.01Q95.79-1.81 98.33-1.81L98.33-1.81Q99.7-1.81 101.2-2.6 102.7-3.39 103.36-3.75 104.02-4.1 104.38-4.1ZM104.99-21.24L104.99-21.24Q104.99-23.19 103.36-23.19L103.36-23.19Q101.89-23.19 99.92-20.56 97.94-17.92 96.65-13.6L96.65-13.6Q96.33-12.55 96.28-12.01L96.28-12.01Q97.26-12.55 98.28-13.04 99.31-13.53 100.28-14.06L100.28-14.06Q102.53-15.31 103.76-16.98 104.99-18.65 104.99-21.24ZM120.59-4.1L120.59-4.1Q121.45-4.1 121.45-3.2L121.45-3.2Q121.45-2.15 118.88-0.83 116.32 0.49 114.61 0.49 112.9 0.49 112.05-0.07 111.19-0.63 110.66-1.64L110.66-1.64Q109.61-3.59 109.61-6.35L109.61-6.35Q109.61-11.23 111.07-15.55 112.54-19.87 114.98-22.72 117.42-25.56 120.25-25.56L120.25-25.56Q121.76-25.56 122.63-24.3 123.5-23.05 123.5-21.34L123.5-21.34Q123.5-18.14 121.83-15.92 120.15-13.7 117.71-12.28 115.27-10.86 112.1-9.59L112.1-9.59 112-6.01Q112-1.81 114.54-1.81L114.54-1.81Q115.91-1.81 117.41-2.6 118.91-3.39 119.57-3.75 120.23-4.1 120.59-4.1ZM121.2-21.24L121.2-21.24Q121.2-23.19 119.57-23.19L119.57-23.19Q118.1-23.19 116.13-20.56 114.15-17.92 112.85-13.6L112.85-13.6Q112.54-12.55 112.49-12.01L112.49-12.01Q113.46-12.55 114.49-13.04 115.51-13.53 116.49-14.06L116.49-14.06Q118.74-15.31 119.97-16.98 121.2-18.65 121.2-21.24ZM130.8-23L130.8-23Q128.72-23 127.21-22.75L127.21-22.75Q126.21-22.85 126.21-23.61L126.21-23.61Q126.21-24.05 126.57-24.51 126.94-24.98 127.55-25.05L127.55-25.05 131.16-24.95Q131.26-25.46 131.37-26.18 131.48-26.9 131.76-28.28 132.04-29.66 132.54-30.79 133.04-31.91 133.85-31.91 134.65-31.91 134.65-31.01L134.65-31.01 134.65-30.69Q133.94-27.66 133.46-25L133.46-25 137.05-25Q138.95-25 139.38-24.71 139.8-24.41 139.8-23.97L139.8-23.97Q139.8-23.12 138.75-22.85L138.75-22.85Q138.22-22.71 136.59-22.71 134.97-22.71 133.07-22.85L133.07-22.85Q132.6-20.41 131-13.72 129.4-7.03 129.4-5.09 129.4-3.15 129.84-2.54L129.84-2.54Q130.16-2.15 130.92-2.15 131.67-2.15 132.21-2.59 132.75-3.03 133.19-3.55 133.63-4.08 134.05-4.52 134.48-4.96 134.99-4.96L134.99-4.96Q136-4.96 136-3.96L136-3.96Q136-3.44 134.98-2.26 133.97-1.07 133.11-0.44 132.26 0.2 130.62 0.2 128.99 0.2 128.38-0.37L128.38-0.37Q127.11-1.49 127.11-3.96L127.11-3.96Q127.11-5.22 127.4-6.96L127.4-6.96 127.87-9.79Q128.33-11.89 128.7-13.46 129.06-15.04 129.33-16.24 129.6-17.43 130.04-19.35 130.48-21.26 130.8-23Z" fill="#1b2141" data-fill-palette-color="primary"></path></g></svg></g></svg></g></svg></g></svg></g><g><svg viewBox="0 0 244.43135999999998 196.58813118097592" height="196.58813118097592" width="244.43135999999998"><g><svg xmlns="http://www.w3.org/2000/svg" xmlns:xlink="http://www.w3.org/1999/xlink" version="1.1" x="0" y="0" viewBox="0 9.786 100.00034525290005 80.42699999999999" enable-background="new 0 0 100 100" xml:space="preserve" id="icon-0" width="244.43135999999998" height="196.58813118097592" class="icon-icon-0" data-fill-palette-color="accent"><path d="M49.942 52.994L90.595 51.529C88.068 47.352 87.436 43.698 82.606 43.068 75.377 42.128 68.148 41.185 60.918 40.242L18.843 34.762C20.101 36.792 39.724 53.361 49.942 52.994" fill="#1b2141" data-fill-palette-color="accent"></path><path d="M0 9.786C4.391 17.043 26.615 32.858 32.953 33.672 50.283 35.903 67.61 38.132 84.939 40.36 81.546 34.753 80.759 31.01 74.627 29.401L47.91 22.378C31.94 18.182 15.97 13.984 0 9.786" fill="#1b2141" data-fill-palette-color="accent"></path><path d="M63.108 66.207L94.349 59.547C92.321 56.201 92.315 54.188 88.522 54.358 82.364 54.631 76.208 54.907 70.051 55.18 58.708 55.686 47.365 56.194 36.023 56.698 37.298 58.064 54.94 67.947 63.108 66.207" fill="#1b2141" data-fill-palette-color="accent"></path><path d="M87.682 90.213C93.407 86.494 94.944 82.492 98.201 76.406 101.852 69.582 99.458 68.562 95.38 61.81 94.963 61.122 89.538 62.042 88.927 62.714 88.182 63.532 88.679 68.169 88.633 69.21z" fill="#1b2141" data-fill-palette-color="accent"></path><path d="M86.35 63.447C82.555 64.256 77.746 63.638 76.778 67.676L72.658 84.887C81.904 82.678 86.028 71.582 86.35 63.447" fill="#1b2141" data-fill-palette-color="accent"></path><path d="M74.666 66.121C65.518 68.074 65.71 70.732 61.787 79.301 68.007 78.711 73.811 71.941 74.666 66.121" fill="#1b2141" data-fill-palette-color="accent"></path></svg></g></svg></g></svg></g><defs></defs></svg><rect width="395.5199999999999" height="113.37514936001256" fill="none" stroke="none" visibility="hidden"></rect></g></svg></g></svg>